<svg xmlns="http://www.w3.org/2000/svg" width="169.129" height="55.303" viewBox="0 0 169.129 55.303"><g fill="#939598"><path d="M73.151 11.781c-.345 0-.638.155-.88.465-.24.31-.361.701-.361 1.174 0 .492.127.893.381 1.201.255.309.566.463.936.463.345 0 .638-.155.88-.467.241-.311.361-.701.361-1.172 0-.494-.127-.896-.38-1.203-.254-.307-.566-.461-.937-.461zm6.864.025c-.102 0-.241.011-.419.031.023.474.036.968.036 1.483 0 .565.012 1.125.035 1.681.153.031.308.047.461.047.509 0 .886-.158 1.13-.474.245-.316.367-.701.367-1.155s-.133-.836-.397-1.147c-.265-.311-.669-.466-1.213-.466zm11.615-.043c-.168 0-.345.018-.532.054.026.446.039.952.039 1.518.06.005.128.008.206.008.863 0 1.295-.273 1.295-.82 0-.507-.336-.76-1.008-.76zm-4.517-.011c0 .092-.209.752-.628 1.979h1.292c-.405-1.221-.607-1.88-.607-1.979h-.057zm-33.511 0c0 .092-.209.752-.628 1.979h1.291c-.404-1.221-.606-1.88-.606-1.979h-.057zm14.521.015c-.222 0-.418.017-.589.05.026.366.039.844.039 1.433.13.005.24.007.33.007.752 0 1.128-.261 1.128-.784 0-.471-.303-.706-.908-.706zm-5.081.039c-.102 0-.241.011-.419.031.023.474.035.968.035 1.483 0 .565.013 1.125.036 1.681.153.031.308.047.461.047.509 0 .885-.158 1.13-.474.245-.316.367-.701.367-1.155s-.133-.836-.397-1.147c-.265-.311-.67-.466-1.213-.466zm39.427-.025c-.346 0-.639.155-.88.465s-.362.701-.362 1.174c0 .492.128.893.382 1.201s.565.463.935.463c.346 0 .639-.155.88-.467.241-.311.361-.701.361-1.172 0-.494-.126-.896-.379-1.203-.253-.307-.566-.461-.937-.461zm-6.584-.018c-.168 0-.346.018-.532.054.026.446.039.952.039 1.518.059.005.128.008.206.008.863 0 1.295-.273 1.295-.82 0-.507-.336-.76-1.008-.76zm-9.249 16.64c-.994 0-1.854.37-2.579 1.111-.727.742-1.089 1.724-1.089 2.946 0 1.222.362 2.205 1.089 2.945.726.742 1.585 1.113 2.579 1.113.993 0 1.853-.371 2.579-1.113.726-.74 1.089-1.723 1.089-2.945 0-1.223-.363-2.204-1.089-2.946-.726-.741-1.586-1.111-2.579-1.111zm-12.264 0c-.994 0-1.854.37-2.579 1.111-.727.742-1.089 1.724-1.089 2.946 0 1.222.362 2.205 1.089 2.945.726.742 1.585 1.113 2.579 1.113.993 0 1.853-.371 2.579-1.113.726-.74 1.089-1.723 1.089-2.945 0-1.223-.363-2.204-1.089-2.946-.727-.741-1.586-1.111-2.579-1.111zm58.204-4.723h-3.53v5.731h3.53c.886 0 1.597-.299 2.132-.895s.803-1.253.803-1.972c0-.718-.268-1.375-.803-1.971-.536-.595-1.247-.893-2.132-.893zm12.791 9.49c-.52.444-.779.963-.779 1.559 0 .551.236.986.711 1.307.473.32 1.016.482 1.627.482.871 0 1.662-.326 2.373-.975.711-.65 1.065-1.418 1.065-2.304-.596-.489-1.489-.733-2.682-.733-1.024 0-1.796.222-2.315.664zm-30.168-4.767c-.779 0-1.455.244-2.028.733s-.967 1.146-1.181 1.972h6.511c-.046-.643-.341-1.253-.883-1.834-.543-.581-1.35-.871-2.419-.871zm-16.39 0c-.979 0-1.819.37-2.521 1.111-.703.742-1.055 1.724-1.055 2.946 0 1.222.352 2.205 1.055 2.945.702.742 1.543 1.113 2.521 1.113.993 0 1.838-.367 2.533-1.102.695-.732 1.043-1.719 1.043-2.957 0-1.238-.348-2.224-1.043-2.957-.695-.733-1.54-1.099-2.533-1.099z"/><path d="M161.553.025H7.577A7.468 7.468 0 0 0 .11 7.492V47.81a7.468 7.468 0 0 0 7.467 7.469h153.977a7.468 7.468 0 0 0 7.466-7.469V7.492a7.469 7.469 0 0 0-7.467-7.467zM94.438 11.118h.617c.087 0 .256-.004.504-.011s.463-.011.646-.011c.449 0 .829.102 1.139.305.31.204.465.513.465.927 0 .565-.21.982-.63 1.252s-.935.404-1.545.404c-.111 0-.19-.002-.237-.007 0 .444.013 1.031.039 1.759h-.997c.03-.683.046-1.488.046-2.415a47.298 47.298 0 0 0-.047-2.203zm-8.692 2.348c.552-1.422.828-2.204.828-2.349h1.341c0 .135.25.906.75 2.314.501 1.408.751 2.177.751 2.304H88.28c0-.155-.107-.598-.323-1.326h-1.639c-.222.717-.333 1.159-.333 1.326h-1.067c-.001-.091.275-.848.828-2.269zm-7.054-2.348h.621c.102 0 .253-.004.454-.011.2-.007.332-.011.394-.011.854 0 1.473.213 1.856.639.385.426.577.937.577 1.532a2.62 2.62 0 0 1-.646 1.76c-.431.501-1.034.752-1.81.752-.35 0-.832-.014-1.447-.043.03-.714.046-1.519.046-2.415a44.378 44.378 0 0 0-.045-2.203zm-2.243 0h1.004c-.031.596-.047 1.33-.047 2.203 0 .892.016 1.696.047 2.415h-1.004a59.259 59.259 0 0 0 0-4.618zm-4.852.61a2.162 2.162 0 0 1 1.649-.717c.625 0 1.147.219 1.568.656s.632.996.632 1.675c0 .726-.223 1.327-.667 1.806a2.163 2.163 0 0 1-1.649.716c-.625 0-1.147-.219-1.568-.658-.421-.438-.632-.996-.632-1.672 0-.727.223-1.328.667-1.806zm-9.879-.61h.621c.102 0 .253-.004.454-.011.2-.007.332-.011.394-.011.854 0 1.473.213 1.856.639.385.426.577.937.577 1.532a2.62 2.62 0 0 1-.646 1.76c-.431.501-1.034.752-1.81.752-.35 0-.833-.014-1.447-.043.03-.714.046-1.519.046-2.415a43.186 43.186 0 0 0-.045-2.203zm-5.046 0h1.054c0 .125.292.626.876 1.5.622.93.979 1.561 1.071 1.892h.053a13.333 13.333 0 0 1-.085-1.419c0-.642-.017-1.299-.05-1.973h.888c-.033.587-.05 1.321-.05 2.203 0 .889.017 1.694.05 2.415h-.877c0-.097-.325-.608-.976-1.536-.681-.977-1.068-1.645-1.163-2.004h-.057c.059.519.089.986.089 1.405 0 .584.016 1.296.049 2.135h-.872c.035-.732.053-1.538.053-2.415 0-.863-.017-1.598-.053-2.203zm-4.438 2.348c.553-1.422.829-2.204.829-2.349h1.341c0 .135.25.906.75 2.314s.75 2.177.75 2.304h-1.135c0-.155-.107-.598-.322-1.326h-1.64c-.222.717-.333 1.159-.333 1.326h-1.068c0-.091.276-.848.828-2.269zm-37.408-1.634c7.181 4.023 14.359 8.049 21.545 12.063.33.185.323.288.068.538a797.608 797.608 0 0 0-4.792 4.767c-.171.173-.276.271-.507.037-5.712-5.826-11.434-11.644-17.152-17.463-.048-.049-.087-.106-.185-.227.429-.004.732.121 1.023.285zm-2.21 35.478c-.6-.461-.83-1.08-.83-1.816.001-3.105-.004-6.211-.006-9.316l-.001-6.585h.01c0-5.243.001-10.485-.003-15.729-.001-.644.125-1.23.58-1.717.178-.188.305-.239.522-.018 3.527 3.6 7.063 7.19 10.599 10.782 2.29 2.326 4.578 4.654 6.877 6.971.223.225.242.343.006.577a7208.853 7208.853 0 0 0-16.843 16.796c-.342.344-.583.307-.911.055zm23.126-11.389c-6.69 3.662-13.375 7.334-20.062 11.004-.11.061-.213.16-.27.197 5.212-5.268 10.427-10.531 15.626-15.812.323-.328.474-.284.763.018a296.599 296.599 0 0 0 4.008 4.082c.236.237.256.333-.065.511zm8.718-4.868a8.93 8.93 0 0 1-.997.608c-2.022 1.118-4.052 2.226-6.069 3.351-.272.152-.435.146-.66-.088a441.6 441.6 0 0 0-4.344-4.419c-.213-.213-.219-.33-.001-.544a709.148 709.148 0 0 0 5.069-5.045c.198-.2.34-.223.587-.082 1.998 1.132 4.006 2.249 6.01 3.371.62.348 1.102.797 1.128 1.531-.022.592-.301 1.007-.723 1.317zm21.223 4.96c-1.544 1.621-3.554 2.432-6.029 2.432-2.369 0-4.383-.822-6.04-2.465-1.659-1.643-2.487-3.68-2.487-6.11s.828-4.466 2.487-6.109c1.657-1.643 3.671-2.464 6.04-2.464 1.177 0 2.3.229 3.37.688 1.069.458 1.926 1.07 2.567 1.834l-1.444 1.444c-1.085-1.299-2.583-1.949-4.493-1.949-1.728 0-3.221.607-4.481 1.823-1.261 1.215-1.892 2.793-1.892 4.733 0 1.941.631 3.518 1.892 4.735 1.261 1.215 2.754 1.822 4.481 1.822 1.834 0 3.362-.611 4.585-1.834.795-.795 1.253-1.904 1.375-3.325h-5.96v-1.972h7.955c.076.429.114.841.114 1.238 0 2.293-.68 4.119-2.04 5.479zm1.894-22.118c0 .608.011 1.222.032 1.841h-.986c.03-.714.046-1.519.046-2.415 0-.861-.016-1.596-.046-2.203h.613c.071 0 .22-.004.445-.011s.435-.011.626-.011c1.086 0 1.629.371 1.629 1.114 0 .589-.311.999-.93 1.23v.054c.238.066.448.252.628.559s.422.867.727 1.683h-1.05c-.274-.837-.484-1.354-.631-1.55-.147-.196-.384-.295-.71-.295-.137 0-.268.002-.393.004zm10.944 22.84c-1.086 1.139-2.469 1.709-4.149 1.709-1.682 0-3.064-.57-4.149-1.709s-1.628-2.562-1.628-4.275c0-1.712.543-3.137 1.628-4.275s2.468-1.708 4.149-1.708 3.063.569 4.149 1.708c1.085 1.139 1.627 2.563 1.627 4.275 0 1.713-.542 3.137-1.627 4.275zm12.265 0c-1.086 1.139-2.469 1.709-4.149 1.709-1.682 0-3.064-.57-4.149-1.709s-1.628-2.562-1.628-4.275c0-1.712.543-3.137 1.628-4.275s2.468-1.708 4.149-1.708 3.063.569 4.149 1.708c1.085 1.139 1.627 2.563 1.627 4.275 0 1.713-.542 3.137-1.627 4.275zm.592-22.751c-.111 0-.189-.002-.237-.007 0 .444.013 1.031.039 1.759h-.997a54.26 54.26 0 0 0 .046-2.415c0-.852-.015-1.586-.046-2.203h.617c.088 0 .256-.004.504-.011s.464-.011.646-.011c.449 0 .829.102 1.139.305.311.204.465.513.465.927 0 .565-.21.982-.63 1.252-.42.269-.935.404-1.546.404zm13.025 23.519c0 1.926-.559 3.389-1.674 4.391-1.115 1-2.476 1.502-4.08 1.502-1.33 0-2.415-.332-3.256-.998-.841-.664-1.444-1.426-1.811-2.281l1.926-.801c.214.609.607 1.123 1.181 1.535a3.271 3.271 0 0 0 1.96.619c1.161 0 2.074-.348 2.739-1.043s.997-1.639.997-2.832v-1.076h-.092c-.367.549-.887 1.008-1.559 1.375-.673.367-1.43.551-2.27.551-1.452 0-2.705-.574-3.76-1.721s-1.582-2.566-1.582-4.263c0-1.696.527-3.118 1.582-4.265 1.055-1.146 2.308-1.719 3.76-1.719.84 0 1.597.184 2.27.55.672.367 1.191.825 1.559 1.376h.092v-1.56h2.018v10.66zm-.306-22.355a2.16 2.16 0 0 1-1.649.716c-.624 0-1.147-.219-1.568-.658-.421-.438-.631-.996-.631-1.672 0-.727.222-1.328.667-1.806a2.16 2.16 0 0 1 1.649-.717c.624 0 1.147.219 1.567.656.422.438.632.996.632 1.675 0 .726-.222 1.327-.667 1.806zm4.408 22.929h-2.108V21.663h2.108v16.414zm1.068-22.341h-.876c0-.097-.325-.608-.976-1.536-.682-.977-1.069-1.645-1.164-2.004h-.057c.06.519.089.986.089 1.405 0 .584.017 1.296.05 2.135h-.873c.036-.732.054-1.538.054-2.415 0-.863-.018-1.598-.054-2.203h1.054c0 .125.292.626.876 1.5.622.93.979 1.561 1.071 1.892h.054a13.333 13.333 0 0 1-.085-1.419c0-.642-.017-1.299-.05-1.973h.887c-.033.587-.05 1.321-.05 2.203 0 .888.017 1.694.05 2.415zm11.151 17.114h-8.872c.061 1.131.439 2.026 1.135 2.682s1.509.986 2.441.986c1.513 0 2.537-.643 3.072-1.926l1.879.779c-.366.871-.971 1.602-1.811 2.189-.841.588-1.872.883-3.095.883-1.696 0-3.076-.566-4.138-1.697-1.062-1.131-1.594-2.561-1.594-4.287 0-1.636.516-3.041 1.548-4.219 1.031-1.176 2.35-1.765 3.954-1.765 1.666 0 2.999.543 4 1.628s1.502 2.537 1.502 4.355l-.021.392zm15.416-2.808c-1.017.925-2.22 1.387-3.61 1.387h-3.484v6.649h-2.109V21.663h5.594c1.391 0 2.594.463 3.61 1.387 1.017.926 1.524 2.091 1.524 3.496 0 1.406-.508 2.572-1.525 3.496zm5.009 8.035h-2.108V21.663h2.108v16.414zm11.232 0h-2.018v-1.559h-.091c-.841 1.283-2.071 1.926-3.691 1.926-1.192 0-2.189-.346-2.991-1.033-.803-.688-1.204-1.596-1.204-2.727 0-1.223.474-2.182 1.422-2.877.947-.695 2.116-1.043 3.507-1.043 1.238 0 2.255.229 3.049.688v-.322c0-.825-.282-1.486-.848-1.982-.565-.497-1.261-.745-2.086-.745-.611 0-1.166.146-1.662.436-.497.29-.837.688-1.021 1.191l-1.926-.825c.26-.672.771-1.295 1.536-1.868.764-.573 1.772-.859 3.026-.859 1.437 0 2.628.421 3.576 1.261.947.841 1.421 2.025 1.421 3.554v6.784zm4.586 4.951h-2.178l2.613-5.662-4.631-10.523h2.292l3.348 8.07h.046l3.255-8.07h2.292l-7.037 16.185z"/></g></svg>