<svg xmlns="http://www.w3.org/2000/svg" width="169.129" height="55.303" viewBox="0 0 169.129 55.303"><path fill="#939598" d="M73.111 31.568c-.729 0-1.387.24-1.981.723-.595.49-.98 1.125-1.164 1.911a3.94 3.94 0 0 0-.135.904v2.215c0 .969.291 1.787.888 2.453.592.66 1.364.994 2.312.994 1.11 0 1.983-.426 2.603-1.285.62-.857.928-1.988.928-3.398 0-1.291-.288-2.362-.873-3.198-.643-.874-1.5-1.319-2.578-1.319zm53.923-.184c-1.183 0-2.087.525-2.704 1.582-.535.869-.797 1.932-.797 3.188 0 1.225.262 2.268.797 3.141.633 1.055 1.527 1.58 2.683 1.58 1.124 0 2.013-.533 2.647-1.613.552-.883.826-1.941.826-3.158s-.264-2.268-.79-3.137c-.629-1.057-1.51-1.583-2.662-1.583zm-39.304.184c-.732 0-1.387.24-1.982.723-.593.49-.982 1.125-1.166 1.911a3.877 3.877 0 0 0-.134.904v2.215c0 .969.292 1.787.888 2.453.592.66 1.364.994 2.309.994 1.119 0 1.984-.426 2.605-1.285.622-.857.934-1.988.934-3.398 0-1.291-.294-2.362-.876-3.198-.644-.874-1.502-1.319-2.578-1.319zm-30.546-4.76h-.052c-.186.785-.474 1.941-.879 3.477l-1.533 4.819h4.953l-1.554-4.819c-.168-.494-.481-1.655-.935-3.477zm92.27 4.432c-.965 0-1.749.412-2.354 1.209-.492.637-.787 1.404-.876 2.295h6.158c.016-.874-.172-1.627-.572-2.27-.513-.818-1.299-1.234-2.356-1.234zM70.221 18.111c.041-.127.041-.254.041-.381v-.941c-1.224-.014-2.391.238-2.391 1.279 0 .676.436.986.984.986a1.421 1.421 0 0 0 1.366-.943zM54.09 13.806c-.184-.577-.338-1.224-.479-1.772h-.029c-.14.549-.295 1.209-.45 1.772l-.73 2.336h2.434l-.746-2.336zM162.404 0H6.724A6.732 6.732 0 0 0 0 6.725v41.863c0 3.703 3.017 6.715 6.724 6.715h155.681c3.708 0 6.725-3.012 6.725-6.715V6.725A6.734 6.734 0 0 0 162.404 0zm-10.22 13.131c2.223 0 2.955 1.828 2.955 3.334 0 .324-.028.578-.057.732h-4.587c.042 1.237.999 1.771 2.11 1.771a5.49 5.49 0 0 0 1.899-.309l.253 1.182c-.591.253-1.406.436-2.392.436-2.223 0-3.531-1.363-3.531-3.46.001-1.9 1.154-3.686 3.35-3.686zm-27.461.154l.084 1.027h.043c.309-.535 1.055-1.182 2.194-1.182 1.196 0 2.435.773 2.435 2.939v4.066h-1.73v-3.869c0-.984-.366-1.73-1.309-1.73-.689 0-1.168.492-1.352 1.014a1.592 1.592 0 0 0-.084.549v4.037h-1.73v-4.811c0-.789-.028-1.449-.057-2.041h1.506zm-18.173-.154c2.223 0 2.955 1.828 2.955 3.334 0 .324-.028.578-.057.732h-4.587c.042 1.237.999 1.771 2.11 1.771.802 0 1.364-.125 1.899-.309l.253 1.182c-.591.253-1.406.436-2.392.436-2.223 0-3.531-1.363-3.531-3.46.001-1.9 1.154-3.686 3.35-3.686zm-7.093-2.983h1.729v9.988h-1.729v-9.988zm-13.725 4.206c-.676 0-1.379.213-1.843.508l-.338-1.126c.506-.31 1.393-.604 2.476-.604 2.195 0 2.829 1.393 2.829 2.897v2.463c0 .619.027 1.224.111 1.646h-1.562l-.126-.759h-.042c-.408.534-1.126.915-2.026.915-1.38 0-2.153-1-2.153-2.041 0-1.717 1.533-2.604 4.066-2.589v-.112c.001-.451-.183-1.198-1.392-1.198zM75.5 10.429c.591 0 .957.409.971.942 0 .507-.38.93-.985.93-.577 0-.956-.423-.956-.93-.001-.533.393-.942.97-.942zm.857 2.856v6.852h-1.729v-6.852h1.729zm-23.801-2.631h2.209l3.081 9.482h-1.871l-.857-2.688H52.12l-.816 2.688h-1.787l3.039-9.482zm9.364 32.139l-1.723-5.414h-5.996l-1.645 5.414h-3.062l5.935-18.448h3.672l5.97 18.448H61.92zm.672-22.656h-1.703l-2.547-6.852h1.872l1.11 3.476c.197.604.338 1.153.465 1.717h.043c.126-.563.281-1.099.464-1.717l1.098-3.476h1.815l-2.617 6.852zm3.562-1.885c0-1.717 1.533-2.604 4.066-2.589v-.112c0-.45-.184-1.197-1.394-1.197-.676 0-1.378.213-1.843.508l-.338-1.126c.506-.31 1.393-.604 2.477-.604 2.194 0 2.828 1.393 2.828 2.897v2.463c0 .619.027 1.224.112 1.646H70.5l-.126-.759h-.042c-.408.534-1.126.915-2.026.915-1.378-.001-2.152-1.001-2.152-2.042zm11.575 23.096c-1.099 1.162-2.469 1.746-4.1 1.746-1.766 0-3.029-.627-3.798-1.891v6.986h-2.954V33.861c0-1.422-.038-2.877-.113-4.371h2.601l.163 2.107h.052c.99-1.582 2.484-2.375 4.494-2.375 1.569 0 2.875.615 3.931 1.859 1.046 1.238 1.572 2.875 1.572 4.899-.001 2.27-.615 4.051-1.848 5.368zm3.076-21.211h-1.729v-9.988h1.729v9.988zm11.539 21.211c-1.102 1.162-2.466 1.746-4.101 1.746-1.761 0-3.026-.627-3.795-1.891v6.986h-2.957V33.861a92.11 92.11 0 0 0-.109-4.371h2.594l.171 2.107h.051c.992-1.582 2.483-2.375 4.49-2.375 1.57 0 2.88.615 3.929 1.859 1.052 1.238 1.575 2.875 1.575 4.899-.001 2.27-.615 4.051-1.848 5.368zm2.03-21.055c-.887 0-1.675-.338-2.167-1.183h-.028l-.084 1.026h-1.478a35.02 35.02 0 0 0 .057-1.928v-8.061h1.729v4.079h.028c.422-.661 1.168-1.097 2.195-1.097 1.675 0 2.87 1.393 2.856 3.475.001 2.464-1.56 3.689-3.108 3.689zm14.88 21.158c-1.208 1.078-2.881 1.613-5.027 1.613-1.989 0-3.58-.385-4.781-1.148l.687-2.463a8.245 8.245 0 0 0 4.265 1.15c1.118 0 1.982-.254 2.604-.752.617-.5.928-1.17.928-2.02 0-.738-.256-1.369-.764-1.883-.516-.51-1.357-.98-2.545-1.422-3.227-1.202-4.843-2.963-4.843-5.28 0-1.516.563-2.76 1.706-3.727 1.141-.965 2.65-1.449 4.532-1.449 1.678 0 3.074.295 4.189.875l-.746 2.408c-1.04-.562-2.222-.85-3.54-.85-1.042 0-1.859.266-2.447.764-.491.463-.738 1.02-.738 1.676 0 .725.283 1.328.848 1.811.494.436 1.389.908 2.68 1.418 1.593.633 2.757 1.387 3.508 2.247.746.857 1.122 1.924 1.122 3.199-.002 1.571-.551 2.853-1.638 3.833zm10.421-9.746h-3.263v6.467c0 1.641.579 2.455 1.729 2.455.529 0 .963-.039 1.312-.129l.084 2.238c-.585.219-1.35.33-2.299.33-1.162 0-2.081-.352-2.735-1.068-.663-.707-.99-1.904-.99-3.584v-6.709h-1.941V29.49h1.941v-2.436l2.898-.875v3.311h3.263v2.215zm-1.667-11.412c-1.928 0-3.434-1.324-3.434-3.532 0-2.251 1.478-3.63 3.546-3.63 2.04 0 3.405 1.436 3.405 3.518 0 2.518-1.773 3.644-3.517 3.644zm13.795 20.781c-1.227 1.346-2.851 2.02-4.871 2.02-1.956 0-3.517-.646-4.674-1.941-1.157-1.293-1.734-2.934-1.734-4.9 0-2.061.596-3.75 1.791-5.063 1.197-1.318 2.803-1.967 4.828-1.967 1.96 0 3.527.641 4.714 1.943 1.128 1.252 1.694 2.881 1.694 4.868 0 2.05-.58 3.722-1.748 5.04zm3.054-27.789h.971v-1.281l1.703-.479v1.76h1.646v1.294h-1.646v3.025c0 .845.225 1.267.886 1.267.31 0 .479-.015.676-.07l.028 1.309c-.254.098-.718.184-1.252.184-.647 0-1.169-.212-1.492-.563-.38-.394-.549-1.027-.549-1.928V14.58h-.971v-1.295zm7.588 18.804a5.224 5.224 0 0 0-.931-.076c-1.04 0-1.841.393-2.408 1.176-.494.695-.739 1.559-.739 2.625v6.979h-2.956v-9.12c0-1.523-.026-2.92-.079-4.184h2.572l.11 2.547h.081c.309-.873.799-1.578 1.478-2.104a3.545 3.545 0 0 1 2.138-.711c.271 0 .52.016.734.051v2.817zm.449-16.061v4.108h-1.729v-9.988h1.729v4.065h.028c.211-.323.507-.591.858-.773a2.43 2.43 0 0 1 1.196-.31c1.168 0 2.393.773 2.393 2.969v4.037h-1.731v-3.854c0-.985-.366-1.745-1.322-1.745-.676 0-1.154.451-1.351.971a1.537 1.537 0 0 0-.071.52zm12.201 20.831h-8.87c.035 1.312.464 2.312 1.288 3.004.746.623 1.712.934 2.899.934 1.316 0 2.509-.209 3.586-.635l.466 2.055c-1.255.553-2.745.82-4.465.82-2.058 0-3.678-.604-4.854-1.816-1.176-1.213-1.77-2.842-1.77-4.885 0-2.01.551-3.676 1.643-5.014 1.155-1.422 2.706-2.133 4.655-2.133 1.922 0 3.37.711 4.353 2.133.782 1.135 1.177 2.531 1.177 4.194a7.516 7.516 0 0 1-.108 1.343zM93.994 14.48c-.703 0-1.351.508-1.533 1.267a2.01 2.01 0 0 0-.058.45v1.111c0 .141.015.282.043.409.183.702.788 1.21 1.533 1.21 1.084 0 1.745-.859 1.745-2.251.001-1.209-.577-2.196-1.73-2.196zm12.457-.168c-1.069 0-1.52.971-1.59 1.674h3.011c.014-.632-.268-1.674-1.421-1.674zm11.627.071c-1.225 0-1.717 1.195-1.717 2.335 0 1.323.661 2.322 1.703 2.322.984 0 1.674-.957 1.674-2.35 0-1.069-.478-2.307-1.66-2.307zm-33.303 3.685c0 .676.437.986.984.986.704 0 1.196-.451 1.365-.943.042-.127.042-.254.042-.381v-.941c-1.223-.014-2.391.238-2.391 1.279zm67.31-3.756c-1.069 0-1.52.971-1.59 1.674h3.011c.015-.632-.268-1.674-1.421-1.674zm-125.564.953c2.09-2.754 4.996-2.767 4.996-2.767s.432 2.589-1.645 5.083c-2.217 2.665-4.736 2.229-4.736 2.229s-.473-2.095 1.385-4.545zm-1.12 6.359c1.075 0 3.071-1.478 5.669-1.478 4.47 0 6.229 3.181 6.229 3.181s-3.44 1.76-3.44 6.027c0 4.813 4.284 6.471 4.284 6.471s-2.994 8.434-7.041 8.434c-1.857 0-3.303-1.252-5.261-1.252-1.995 0-3.976 1.297-5.266 1.297-3.695 0-8.364-7.998-8.364-14.426 0-6.326 3.953-9.643 7.659-9.643 2.408 0 4.279 1.389 5.531 1.389z"/></svg>