<svg xmlns="http://www.w3.org/2000/svg" viewBox="0 0 325.05 68.54"><title>andamiaje-logo-grey</title><path d="M40.54 53.49l-5.62-14.54H9L3.46 53.49H.73L20.46 2.37h2.88l19.94 51.12zM10 36.43h23.94L22 5.53h-.17zm55.9-18.15a11.69 11.69 0 0 1 9 3.56q3.31 3.56 3.31 10.62v21h-2.37V33.4q0-12.74-10.08-12.74a13 13 0 0 0-10.12 4.28q-3.85 4.28-3.85 11.27v17.28h-2.38V18.57h2.38v7.85h.07a15 15 0 0 1 5.72-6 16.19 16.19 0 0 1 8.32-2.14zM116.5.5h2.5v53h-2.5v-7.78h-.07q-4.61 8.06-14 8.06A17.2 17.2 0 0 1 90.08 49q-5-4.79-5-12.64a18 18 0 0 1 4.9-12.92 16.53 16.53 0 0 1 12.53-5.15 15.56 15.56 0 0 1 8.14 2.2 16 16 0 0 1 5.83 6.08h.07zm-14.11 50.9a13.64 13.64 0 0 0 10.15-4.1q4-4.1 4-10.94a16.56 16.56 0 0 0-3.89-11.16 12.81 12.81 0 0 0-10.22-4.54A14.34 14.34 0 0 0 91.88 25a15.41 15.41 0 0 0-4.32 11.34 14.9 14.9 0 0 0 4.14 10.74 14.14 14.14 0 0 0 10.69 4.32zm55.34-32.83h2.45v34.92h-2.45v-7.77h-.07q-4.61 8.06-14 8.06A17.2 17.2 0 0 1 131.31 49q-5-4.79-5-12.64a17.94 17.94 0 0 1 4.93-12.92 16.56 16.56 0 0 1 12.49-5.15 15.56 15.56 0 0 1 8.14 2.2 16 16 0 0 1 5.83 6.08h.07zM143.62 51.4a13.64 13.64 0 0 0 10.15-4.1q4-4.1 4-10.94a16.55 16.55 0 0 0-3.89-11.16 12.81 12.81 0 0 0-10.22-4.54A14.34 14.34 0 0 0 133.11 25a15.41 15.41 0 0 0-4.32 11.34 14.9 14.9 0 0 0 4.14 10.73 14.14 14.14 0 0 0 10.69 4.33zm66.01-33.12q5.83 0 8.78 3.89t3 11v20.3H219V34.05q0-13.39-9.72-13.39a11 11 0 0 0-8.83 4.34q-3.56 4.32-3.56 11.23v17.26h-2.38V33.76q0-13.1-9.94-13.1a11.42 11.42 0 0 0-9.11 4.34q-3.64 4.32-3.64 11.23v17.26h-2.38V18.57h2.38v8.14h.18a15.12 15.12 0 0 1 5.4-6.19 13.67 13.67 0 0 1 7.56-2.23q9.29 0 11.38 9.22h.14a15 15 0 0 1 5.36-6.77 13.52 13.52 0 0 1 7.79-2.46zm23.92-8.38a2.71 2.71 0 0 1-1.94.76A2.58 2.58 0 0 1 228.94 8a2.58 2.58 0 0 1 2.66-2.66 2.71 2.71 0 0 1 1.94.76 2.53 2.53 0 0 1 .8 1.9 2.53 2.53 0 0 1-.79 1.9zm-3.17 43.6V18.57h2.38v34.92zm41.17-34.93H274v34.92h-2.45v-7.77h-.07q-4.61 8.06-14 8.06A17.2 17.2 0 0 1 245.12 49q-5-4.79-5-12.64A17.94 17.94 0 0 1 245 23.43a16.56 16.56 0 0 1 12.49-5.15 15.56 15.56 0 0 1 8.14 2.2 16 16 0 0 1 5.83 6.08h.07zM257.43 51.4a13.64 13.64 0 0 0 10.15-4.1q4-4.1 4-10.94a16.55 16.55 0 0 0-3.89-11.16 12.81 12.81 0 0 0-10.22-4.54A14.34 14.34 0 0 0 246.92 25a15.41 15.41 0 0 0-4.32 11.34 14.9 14.9 0 0 0 4.14 10.73 14.14 14.14 0 0 0 10.69 4.33zM278.26 68a10.63 10.63 0 0 1-4.82-1l.36-2.45a7.29 7.29 0 0 0 4.2 1.11q5.4 0 5.4-6.48V18.57h2.38v40.61a10.57 10.57 0 0 1-1.8 6.41Q282.22 68 278.26 68zm8.21-57.85a2.71 2.71 0 0 1-1.94.76 2.58 2.58 0 0 1-2.66-2.66 2.58 2.58 0 0 1 2.66-2.66 2.71 2.71 0 0 1 1.94.76 2.53 2.53 0 0 1 .79 1.91 2.53 2.53 0 0 1-.79 1.92zm38.08 25.05a9.06 9.06 0 0 1-.07 1.51h-29.16a15.85 15.85 0 0 0 4.21 10.51 13 13 0 0 0 9.9 4.18 14.6 14.6 0 0 0 11.88-5.69l1.8 1.58a17.22 17.22 0 0 1-25.52 1.55q-4.79-4.93-4.79-12.78a18 18 0 0 1 4.68-12.78 15.15 15.15 0 0 1 11.52-5A14.42 14.42 0 0 1 320.3 23a17.57 17.57 0 0 1 4.25 12.2zm-15.26-14.54a13.12 13.12 0 0 0-9.43 3.82 14.9 14.9 0 0 0-4.46 9.86h26.7a15.47 15.47 0 0 0-3.82-9.94 11.68 11.68 0 0 0-8.99-3.74z" fill="#f2f2f2" stroke="#f2f2f2"/></svg>