<svg xmlns="http://www.w3.org/2000/svg" viewBox="0 0 325.05 68.54"><title>andamiaje-logo-grey</title><path d="M40.54,53.49,34.92,38.95H9L3.46,53.49H.73L20.46,2.37h2.88L43.28,53.49ZM10,36.43H33.94L22,5.53h-.17Z" style="fill:#f2f2f2;stroke:#f2f2f2"/><path d="M65.9,18.28a11.69,11.69,0,0,1,9,3.56q3.31,3.56,3.31,10.62v21H75.84V33.4q0-12.74-10.08-12.74a13,13,0,0,0-10.12,4.28q-3.85,4.28-3.85,11.27V53.49H49.41V18.57h2.38v7.85h.07a15,15,0,0,1,5.72-6A16.19,16.19,0,0,1,65.9,18.28Z" style="fill:#f2f2f2;stroke:#f2f2f2"/><path d="M116.5.5H119v53H116.5V45.72h-.07q-4.61,8.06-14,8.06A17.2,17.2,0,0,1,90.08,49q-5-4.79-5-12.64a18,18,0,0,1,4.9-12.92,16.53,16.53,0,0,1,12.53-5.15,15.56,15.56,0,0,1,8.14,2.2,16,16,0,0,1,5.83,6.08h.07ZM102.39,51.4a13.64,13.64,0,0,0,10.15-4.1q4-4.1,4-10.94a16.56,16.56,0,0,0-3.89-11.16,12.81,12.81,0,0,0-10.22-4.54A14.34,14.34,0,0,0,91.88,25a15.41,15.41,0,0,0-4.32,11.34A14.9,14.9,0,0,0,91.7,47.08,14.14,14.14,0,0,0,102.39,51.4Z" style="fill:#f2f2f2;stroke:#f2f2f2"/><path d="M157.73,18.57h2.45V53.49h-2.45V45.72h-.07q-4.61,8.06-14,8.06A17.2,17.2,0,0,1,131.31,49q-5-4.79-5-12.64a17.94,17.94,0,0,1,4.93-12.92,16.56,16.56,0,0,1,12.49-5.15,15.56,15.56,0,0,1,8.14,2.2,16,16,0,0,1,5.83,6.08h.07ZM143.62,51.4a13.64,13.64,0,0,0,10.15-4.1q4-4.1,4-10.94a16.55,16.55,0,0,0-3.89-11.16,12.81,12.81,0,0,0-10.22-4.54A14.34,14.34,0,0,0,133.11,25a15.41,15.41,0,0,0-4.32,11.34,14.9,14.9,0,0,0,4.14,10.73A14.14,14.14,0,0,0,143.62,51.4Z" style="fill:#f2f2f2;stroke:#f2f2f2"/><path d="M209.63,18.28q5.83,0,8.78,3.89t3,11v20.3H219V34.05q0-13.39-9.72-13.39A11,11,0,0,0,200.45,25q-3.56,4.32-3.56,11.23V53.49h-2.38V33.76q0-13.1-9.94-13.1A11.42,11.42,0,0,0,175.46,25q-3.64,4.32-3.64,11.23V53.49h-2.38V18.57h2.38v8.14H172a15.12,15.12,0,0,1,5.4-6.19,13.67,13.67,0,0,1,7.56-2.23q9.29,0,11.38,9.22h.14a15,15,0,0,1,5.36-6.77A13.52,13.52,0,0,1,209.63,18.28Z" style="fill:#f2f2f2;stroke:#f2f2f2"/><path d="M233.55,9.9a2.71,2.71,0,0,1-1.94.76A2.58,2.58,0,0,1,228.94,8a2.58,2.58,0,0,1,2.66-2.66,2.71,2.71,0,0,1,1.94.76A2.53,2.53,0,0,1,234.34,8,2.53,2.53,0,0,1,233.55,9.9Zm-3.17,43.6V18.57h2.38V53.49Z" style="fill:#f2f2f2;stroke:#f2f2f2"/><path d="M271.55,18.57H274V53.49h-2.45V45.72h-.07q-4.61,8.06-14,8.06A17.2,17.2,0,0,1,245.12,49q-5-4.79-5-12.64A17.94,17.94,0,0,1,245,23.43a16.56,16.56,0,0,1,12.49-5.15,15.56,15.56,0,0,1,8.14,2.2,16,16,0,0,1,5.83,6.08h.07ZM257.43,51.4a13.64,13.64,0,0,0,10.15-4.1q4-4.1,4-10.94a16.55,16.55,0,0,0-3.89-11.16,12.81,12.81,0,0,0-10.22-4.54A14.34,14.34,0,0,0,246.92,25a15.41,15.41,0,0,0-4.32,11.34,14.9,14.9,0,0,0,4.14,10.73A14.14,14.14,0,0,0,257.43,51.4Z" style="fill:#f2f2f2;stroke:#f2f2f2"/><path d="M278.26,68A10.63,10.63,0,0,1,273.44,67l.36-2.45A7.29,7.29,0,0,0,278,65.66q5.4,0,5.4-6.48V18.57h2.38V59.18a10.57,10.57,0,0,1-1.8,6.41Q282.22,68,278.26,68Zm8.21-57.85a2.71,2.71,0,0,1-1.94.76,2.58,2.58,0,0,1-2.66-2.66,2.58,2.58,0,0,1,2.66-2.66,2.71,2.71,0,0,1,1.94.76,2.53,2.53,0,0,1,.79,1.91A2.53,2.53,0,0,1,286.47,10.18Z" style="fill:#f2f2f2;stroke:#f2f2f2"/><path d="M324.55,35.2a9.06,9.06,0,0,1-.07,1.51H295.32a15.85,15.85,0,0,0,4.21,10.51,13,13,0,0,0,9.9,4.18,14.6,14.6,0,0,0,11.88-5.69l1.8,1.58a17.22,17.22,0,0,1-25.52,1.55q-4.79-4.93-4.79-12.78a18,18,0,0,1,4.68-12.78,15.15,15.15,0,0,1,11.52-5A14.42,14.42,0,0,1,320.3,23,17.57,17.57,0,0,1,324.55,35.2ZM309.29,20.66a13.12,13.12,0,0,0-9.43,3.82,14.9,14.9,0,0,0-4.46,9.86H322.1a15.47,15.47,0,0,0-3.82-9.94A11.68,11.68,0,0,0,309.29,20.66Z" style="fill:#f2f2f2;stroke:#f2f2f2"/></svg>