<?xml version="1.0" encoding="utf-8"?>
<!-- Generator: Adobe Illustrator 15.0.2, SVG Export Plug-In . SVG Version: 6.00 Build 0)  -->
<!DOCTYPE svg PUBLIC "-//W3C//DTD SVG 1.1//EN" "http://www.w3.org/Graphics/SVG/1.1/DTD/svg11.dtd">
<svg version="1.1" id="Layer_1" xmlns="http://www.w3.org/2000/svg" xmlns:xlink="http://www.w3.org/1999/xlink" x="0px" y="0px"
	 width="169.129px" height="55.303px" viewBox="0 0 169.129 55.303" enable-background="new 0 0 169.129 55.303"
	 xml:space="preserve">
<g>
	<path fill="#939598" d="M73.151,11.781c-0.345,0-0.638,0.155-0.88,0.465c-0.24,0.31-0.361,0.701-0.361,1.174
		c0,0.492,0.127,0.893,0.381,1.201c0.255,0.309,0.566,0.463,0.936,0.463c0.345,0,0.638-0.155,0.88-0.467
		c0.241-0.311,0.361-0.701,0.361-1.172c0-0.494-0.127-0.896-0.38-1.203C73.834,11.935,73.522,11.781,73.151,11.781z"/>
	<path fill="#939598" d="M80.015,11.806c-0.102,0-0.241,0.011-0.419,0.031c0.023,0.474,0.036,0.968,0.036,1.483
		c0,0.565,0.012,1.125,0.035,1.681c0.153,0.031,0.308,0.047,0.461,0.047c0.509,0,0.886-0.158,1.13-0.474
		c0.245-0.316,0.367-0.701,0.367-1.155s-0.133-0.836-0.397-1.147C80.963,11.961,80.559,11.806,80.015,11.806z"/>
	<path fill="#939598" d="M91.63,11.763c-0.168,0-0.345,0.018-0.532,0.054c0.026,0.446,0.039,0.952,0.039,1.518
		c0.06,0.005,0.128,0.008,0.206,0.008c0.863,0,1.295-0.273,1.295-0.82C92.638,12.016,92.302,11.763,91.63,11.763z"/>
	<path fill="#939598" d="M87.113,11.752c0,0.092-0.209,0.752-0.628,1.979h1.292c-0.405-1.221-0.607-1.88-0.607-1.979H87.113z"/>
	<path fill="#939598" d="M53.602,11.752c0,0.092-0.209,0.752-0.628,1.979h1.291c-0.404-1.221-0.606-1.88-0.606-1.979H53.602z"/>
	<path fill="#939598" d="M68.123,11.767c-0.222,0-0.418,0.017-0.589,0.05c0.026,0.366,0.039,0.844,0.039,1.433
		c0.13,0.005,0.24,0.007,0.33,0.007c0.752,0,1.128-0.261,1.128-0.784C69.031,12.002,68.728,11.767,68.123,11.767z"/>
	<path fill="#939598" d="M63.042,11.806c-0.102,0-0.241,0.011-0.419,0.031c0.023,0.474,0.035,0.968,0.035,1.483
		c0,0.565,0.013,1.125,0.036,1.681c0.153,0.031,0.308,0.047,0.461,0.047c0.509,0,0.885-0.158,1.13-0.474
		c0.245-0.316,0.367-0.701,0.367-1.155s-0.133-0.836-0.397-1.147C63.99,11.961,63.585,11.806,63.042,11.806z"/>
	<path fill="#939598" d="M102.469,11.781c-0.346,0-0.639,0.155-0.88,0.465s-0.362,0.701-0.362,1.174
		c0,0.492,0.128,0.893,0.382,1.201s0.565,0.463,0.935,0.463c0.346,0,0.639-0.155,0.88-0.467c0.241-0.311,0.361-0.701,0.361-1.172
		c0-0.494-0.126-0.896-0.379-1.203C103.153,11.935,102.84,11.781,102.469,11.781z"/>
	<path fill="#939598" d="M95.885,11.763c-0.168,0-0.346,0.018-0.532,0.054c0.026,0.446,0.039,0.952,0.039,1.518
		c0.059,0.005,0.128,0.008,0.206,0.008c0.863,0,1.295-0.273,1.295-0.82C96.893,12.016,96.557,11.763,95.885,11.763z"/>
	<path fill="#939598" d="M86.636,28.403c-0.994,0-1.854,0.37-2.579,1.111c-0.727,0.742-1.089,1.724-1.089,2.946
		c0,1.222,0.362,2.205,1.089,2.945c0.726,0.742,1.585,1.113,2.579,1.113c0.993,0,1.853-0.371,2.579-1.113
		c0.726-0.74,1.089-1.723,1.089-2.945c0-1.223-0.363-2.204-1.089-2.946C88.489,28.773,87.629,28.403,86.636,28.403z"/>
	<path fill="#939598" d="M74.372,28.403c-0.994,0-1.854,0.37-2.579,1.111c-0.727,0.742-1.089,1.724-1.089,2.946
		c0,1.222,0.362,2.205,1.089,2.945c0.726,0.742,1.585,1.113,2.579,1.113c0.993,0,1.853-0.371,2.579-1.113
		c0.726-0.74,1.089-1.723,1.089-2.945c0-1.223-0.363-2.204-1.089-2.946C76.224,28.773,75.365,28.403,74.372,28.403z"/>
	<path fill="#939598" d="M132.576,23.68h-3.53v5.731h3.53c0.886,0,1.597-0.299,2.132-0.895s0.803-1.253,0.803-1.972
		c0-0.718-0.268-1.375-0.803-1.971C134.172,23.978,133.461,23.68,132.576,23.68z"/>
	<path fill="#939598" d="M145.367,33.17c-0.52,0.444-0.779,0.963-0.779,1.559c0,0.551,0.236,0.986,0.711,1.307
		c0.473,0.32,1.016,0.482,1.627,0.482c0.871,0,1.662-0.326,2.373-0.975c0.711-0.65,1.065-1.418,1.065-2.304
		c-0.596-0.489-1.489-0.733-2.682-0.733C146.658,32.506,145.886,32.728,145.367,33.17z"/>
	<path fill="#939598" d="M115.199,28.403c-0.779,0-1.455,0.244-2.028,0.733s-0.967,1.146-1.181,1.972h6.511
		c-0.046-0.643-0.341-1.253-0.883-1.834C117.075,28.693,116.268,28.403,115.199,28.403z"/>
	<path fill="#939598" d="M98.809,28.403c-0.979,0-1.819,0.37-2.521,1.111c-0.703,0.742-1.055,1.724-1.055,2.946
		c0,1.222,0.352,2.205,1.055,2.945c0.702,0.742,1.543,1.113,2.521,1.113c0.993,0,1.838-0.367,2.533-1.102
		c0.695-0.732,1.043-1.719,1.043-2.957c0-1.238-0.348-2.224-1.043-2.957C100.647,28.769,99.802,28.403,98.809,28.403z"/>
	<path fill="#939598" d="M161.553,0.025H7.577c-4.124,0-7.467,3.344-7.467,7.467V47.81c0,4.125,3.343,7.469,7.467,7.469h153.977
		c4.123,0,7.466-3.344,7.466-7.469V7.492C169.019,3.369,165.676,0.025,161.553,0.025z M94.438,11.118h0.617
		c0.087,0,0.256-0.004,0.504-0.011s0.463-0.011,0.646-0.011c0.449,0,0.829,0.102,1.139,0.305c0.31,0.204,0.465,0.513,0.465,0.927
		c0,0.565-0.21,0.982-0.63,1.252s-0.935,0.404-1.545,0.404c-0.111,0-0.19-0.002-0.237-0.007c0,0.444,0.013,1.031,0.039,1.759h-0.997
		c0.03-0.683,0.046-1.488,0.046-2.415C94.484,12.469,94.468,11.735,94.438,11.118z M85.746,13.466
		c0.552-1.422,0.828-2.204,0.828-2.349h1.341c0,0.135,0.25,0.906,0.75,2.314c0.501,1.408,0.751,2.177,0.751,2.304H88.28
		c0-0.155-0.107-0.598-0.323-1.326h-1.639c-0.222,0.717-0.333,1.159-0.333,1.326h-1.067C84.917,15.644,85.193,14.887,85.746,13.466z
		 M78.692,11.118h0.621c0.102,0,0.253-0.004,0.454-0.011c0.2-0.007,0.332-0.011,0.394-0.011c0.854,0,1.473,0.213,1.856,0.639
		c0.385,0.426,0.577,0.937,0.577,1.532c0,0.672-0.216,1.259-0.646,1.76c-0.431,0.501-1.034,0.752-1.81,0.752
		c-0.35,0-0.832-0.014-1.447-0.043c0.03-0.714,0.046-1.519,0.046-2.415C78.738,12.459,78.722,11.725,78.692,11.118z M76.449,11.118
		h1.004c-0.031,0.596-0.047,1.33-0.047,2.203c0,0.892,0.016,1.696,0.047,2.415h-1.004c0.03-0.732,0.046-1.538,0.046-2.415
		C76.495,12.458,76.479,11.723,76.449,11.118z M71.597,11.728c0.445-0.478,0.994-0.717,1.649-0.717c0.625,0,1.147,0.219,1.568,0.656
		s0.632,0.996,0.632,1.675c0,0.726-0.223,1.327-0.667,1.806c-0.445,0.478-0.995,0.716-1.649,0.716c-0.625,0-1.147-0.219-1.568-0.658
		c-0.421-0.438-0.632-0.996-0.632-1.672C70.93,12.807,71.153,12.206,71.597,11.728z M61.718,11.118h0.621
		c0.102,0,0.253-0.004,0.454-0.011c0.2-0.007,0.332-0.011,0.394-0.011c0.854,0,1.473,0.213,1.856,0.639
		c0.385,0.426,0.577,0.937,0.577,1.532c0,0.672-0.216,1.259-0.646,1.76c-0.431,0.501-1.034,0.752-1.81,0.752
		c-0.35,0-0.833-0.014-1.447-0.043c0.03-0.714,0.046-1.519,0.046-2.415C61.764,12.459,61.749,11.725,61.718,11.118z M56.672,11.118
		h1.054c0,0.125,0.292,0.626,0.876,1.5c0.622,0.93,0.979,1.561,1.071,1.892h0.053c-0.057-0.527-0.085-1.001-0.085-1.419
		c0-0.642-0.017-1.299-0.05-1.973h0.888c-0.033,0.587-0.05,1.321-0.05,2.203c0,0.889,0.017,1.694,0.05,2.415h-0.877
		c0-0.097-0.325-0.608-0.976-1.536c-0.681-0.977-1.068-1.645-1.163-2.004h-0.057c0.059,0.519,0.089,0.986,0.089,1.405
		c0,0.584,0.016,1.296,0.049,2.135h-0.872c0.035-0.732,0.053-1.538,0.053-2.415C56.725,12.458,56.708,11.723,56.672,11.118z
		 M52.234,13.466c0.553-1.422,0.829-2.204,0.829-2.349h1.341c0,0.135,0.25,0.906,0.75,2.314s0.75,2.177,0.75,2.304h-1.135
		c0-0.155-0.107-0.598-0.322-1.326h-1.64c-0.222,0.717-0.333,1.159-0.333,1.326h-1.068C51.406,15.644,51.682,14.887,52.234,13.466z
		 M14.826,11.832c7.181,4.023,14.359,8.049,21.545,12.063c0.33,0.185,0.323,0.288,0.068,0.538c-1.606,1.58-3.199,3.173-4.792,4.767
		c-0.171,0.173-0.276,0.271-0.507,0.037c-5.712-5.826-11.434-11.644-17.152-17.463c-0.048-0.049-0.087-0.106-0.185-0.227
		C14.232,11.543,14.535,11.668,14.826,11.832z M12.616,47.31c-0.6-0.461-0.83-1.08-0.83-1.816c0.001-3.105-0.004-6.211-0.006-9.316
		c-0.001-2.195-0.001-4.39-0.001-6.585c0.004,0,0.006,0,0.01,0c0-5.243,0.001-10.485-0.003-15.729
		c-0.001-0.644,0.125-1.23,0.58-1.717c0.178-0.188,0.305-0.239,0.522-0.018c3.527,3.6,7.063,7.19,10.599,10.782
		c2.29,2.326,4.578,4.654,6.877,6.971c0.223,0.225,0.242,0.343,0.006,0.577C24.748,36.05,19.13,41.646,13.527,47.255
		C13.185,47.599,12.944,47.562,12.616,47.31z M35.742,35.921c-6.69,3.662-13.375,7.334-20.062,11.004
		c-0.11,0.061-0.213,0.16-0.27,0.197c5.212-5.268,10.427-10.531,15.626-15.812c0.323-0.328,0.474-0.284,0.763,0.018
		c1.32,1.375,2.661,2.732,4.008,4.082C36.043,35.647,36.063,35.743,35.742,35.921z M44.46,31.053
		c-0.312,0.23-0.656,0.42-0.997,0.608c-2.022,1.118-4.052,2.226-6.069,3.351c-0.272,0.152-0.435,0.146-0.66-0.088
		c-1.437-1.484-2.887-2.956-4.344-4.419c-0.213-0.213-0.219-0.33-0.001-0.544c1.698-1.673,3.388-3.355,5.069-5.045
		c0.198-0.2,0.34-0.223,0.587-0.082c1.998,1.132,4.006,2.249,6.01,3.371c0.62,0.348,1.102,0.797,1.128,1.531
		C45.161,30.328,44.882,30.743,44.46,31.053z M65.683,36.013c-1.544,1.621-3.554,2.432-6.029,2.432c-2.369,0-4.383-0.822-6.04-2.465
		c-1.659-1.643-2.487-3.68-2.487-6.11s0.828-4.466,2.487-6.109c1.657-1.643,3.671-2.464,6.04-2.464c1.177,0,2.3,0.229,3.37,0.688
		c1.069,0.458,1.926,1.07,2.567,1.834l-1.444,1.444c-1.085-1.299-2.583-1.949-4.493-1.949c-1.728,0-3.221,0.607-4.481,1.823
		c-1.261,1.215-1.892,2.793-1.892,4.733c0,1.941,0.631,3.518,1.892,4.735c1.261,1.215,2.754,1.822,4.481,1.822
		c1.834,0,3.362-0.611,4.585-1.834c0.795-0.795,1.253-1.904,1.375-3.325h-5.96v-1.972h7.955c0.076,0.429,0.114,0.841,0.114,1.238
		C67.723,32.827,67.043,34.653,65.683,36.013z M67.577,13.895c0,0.608,0.011,1.222,0.032,1.841h-0.986
		c0.03-0.714,0.046-1.519,0.046-2.415c0-0.861-0.016-1.596-0.046-2.203h0.613c0.071,0,0.22-0.004,0.445-0.011
		s0.435-0.011,0.626-0.011c1.086,0,1.629,0.371,1.629,1.114c0,0.589-0.311,0.999-0.93,1.23v0.054
		c0.238,0.066,0.448,0.252,0.628,0.559s0.422,0.867,0.727,1.683h-1.05c-0.274-0.837-0.484-1.354-0.631-1.55
		c-0.147-0.196-0.384-0.295-0.71-0.295C67.833,13.891,67.702,13.893,67.577,13.895z M78.521,36.735
		c-1.086,1.139-2.469,1.709-4.149,1.709c-1.682,0-3.064-0.57-4.149-1.709s-1.628-2.562-1.628-4.275c0-1.712,0.543-3.137,1.628-4.275
		s2.468-1.708,4.149-1.708c1.681,0,3.063,0.569,4.149,1.708c1.085,1.139,1.627,2.563,1.627,4.275
		C80.148,34.173,79.606,35.597,78.521,36.735z M90.786,36.735c-1.086,1.139-2.469,1.709-4.149,1.709
		c-1.682,0-3.064-0.57-4.149-1.709s-1.628-2.562-1.628-4.275c0-1.712,0.543-3.137,1.628-4.275s2.468-1.708,4.149-1.708
		c1.681,0,3.063,0.569,4.149,1.708c1.085,1.139,1.627,2.563,1.627,4.275C92.413,34.173,91.871,35.597,90.786,36.735z M91.378,13.984
		c-0.111,0-0.189-0.002-0.237-0.007c0,0.444,0.013,1.031,0.039,1.759h-0.997c0.031-0.683,0.046-1.488,0.046-2.415
		c0-0.852-0.015-1.586-0.046-2.203H90.8c0.088,0,0.256-0.004,0.504-0.011s0.464-0.011,0.646-0.011c0.449,0,0.829,0.102,1.139,0.305
		c0.311,0.204,0.465,0.513,0.465,0.927c0,0.565-0.21,0.982-0.63,1.252C92.504,13.849,91.989,13.984,91.378,13.984z M104.403,37.503
		c0,1.926-0.559,3.389-1.674,4.391c-1.115,1-2.476,1.502-4.08,1.502c-1.33,0-2.415-0.332-3.256-0.998
		c-0.841-0.664-1.444-1.426-1.811-2.281l1.926-0.801c0.214,0.609,0.607,1.123,1.181,1.535c0.572,0.412,1.226,0.619,1.96,0.619
		c1.161,0,2.074-0.348,2.739-1.043s0.997-1.639,0.997-2.832v-1.076h-0.092c-0.367,0.549-0.887,1.008-1.559,1.375
		c-0.673,0.367-1.43,0.551-2.27,0.551c-1.452,0-2.705-0.574-3.76-1.721s-1.582-2.566-1.582-4.263c0-1.696,0.527-3.118,1.582-4.265
		c1.055-1.146,2.308-1.719,3.76-1.719c0.84,0,1.597,0.184,2.27,0.55c0.672,0.367,1.191,0.825,1.559,1.376h0.092v-1.56h2.018V37.503z
		 M104.097,15.148c-0.444,0.478-0.994,0.716-1.649,0.716c-0.624,0-1.147-0.219-1.568-0.658c-0.421-0.438-0.631-0.996-0.631-1.672
		c0-0.727,0.222-1.328,0.667-1.806c0.444-0.478,0.994-0.717,1.649-0.717c0.624,0,1.147,0.219,1.567,0.656
		c0.422,0.438,0.632,0.996,0.632,1.675C104.764,14.068,104.542,14.669,104.097,15.148z M108.505,38.077h-2.108V21.663h2.108V38.077z
		 M109.573,15.736h-0.876c0-0.097-0.325-0.608-0.976-1.536c-0.682-0.977-1.069-1.645-1.164-2.004H106.5
		c0.06,0.519,0.089,0.986,0.089,1.405c0,0.584,0.017,1.296,0.05,2.135h-0.873c0.036-0.732,0.054-1.538,0.054-2.415
		c0-0.863-0.018-1.598-0.054-2.203h1.054c0,0.125,0.292,0.626,0.876,1.5c0.622,0.93,0.979,1.561,1.071,1.892h0.054
		c-0.057-0.527-0.085-1.001-0.085-1.419c0-0.642-0.017-1.299-0.05-1.973h0.887c-0.033,0.587-0.05,1.321-0.05,2.203
		C109.523,14.209,109.54,15.015,109.573,15.736z M120.724,32.85h-8.872c0.061,1.131,0.439,2.026,1.135,2.682
		s1.509,0.986,2.441,0.986c1.513,0,2.537-0.643,3.072-1.926l1.879,0.779c-0.366,0.871-0.971,1.602-1.811,2.189
		c-0.841,0.588-1.872,0.883-3.095,0.883c-1.696,0-3.076-0.566-4.138-1.697c-1.062-1.131-1.594-2.561-1.594-4.287
		c0-1.636,0.516-3.041,1.548-4.219c1.031-1.176,2.35-1.765,3.954-1.765c1.666,0,2.999,0.543,4,1.628s1.502,2.537,1.502,4.355
		L120.724,32.85z M136.14,30.042c-1.017,0.925-2.22,1.387-3.61,1.387h-3.484v6.649h-2.109V21.663h5.594
		c1.391,0,2.594,0.463,3.61,1.387c1.017,0.926,1.524,2.091,1.524,3.496C137.665,27.952,137.157,29.118,136.14,30.042z
		 M141.149,38.077h-2.108V21.663h2.108V38.077z M152.381,38.077h-2.018v-1.559h-0.091c-0.841,1.283-2.071,1.926-3.691,1.926
		c-1.192,0-2.189-0.346-2.991-1.033c-0.803-0.688-1.204-1.596-1.204-2.727c0-1.223,0.474-2.182,1.422-2.877
		c0.947-0.695,2.116-1.043,3.507-1.043c1.238,0,2.255,0.229,3.049,0.688V31.13c0-0.825-0.282-1.486-0.848-1.982
		c-0.565-0.497-1.261-0.745-2.086-0.745c-0.611,0-1.166,0.146-1.662,0.436c-0.497,0.29-0.837,0.688-1.021,1.191l-1.926-0.825
		c0.26-0.672,0.771-1.295,1.536-1.868c0.764-0.573,1.772-0.859,3.026-0.859c1.437,0,2.628,0.421,3.576,1.261
		c0.947,0.841,1.421,2.025,1.421,3.554V38.077z M156.967,43.028h-2.178l2.613-5.662l-4.631-10.523h2.292l3.348,8.07h0.046
		l3.255-8.07h2.292L156.967,43.028z"/>
</g>
</svg>
