<?xml version="1.0" encoding="utf-8"?>
<!-- Generator: Adobe Illustrator 15.0.2, SVG Export Plug-In . SVG Version: 6.00 Build 0)  -->
<!DOCTYPE svg PUBLIC "-//W3C//DTD SVG 1.1//EN" "http://www.w3.org/Graphics/SVG/1.1/DTD/svg11.dtd">
<svg version="1.1" id="Layer_1" xmlns="http://www.w3.org/2000/svg" xmlns:xlink="http://www.w3.org/1999/xlink" x="0px" y="0px"
	 width="169.129px" height="55.303px" viewBox="0 0 169.129 55.303" enable-background="new 0 0 169.129 55.303"
	 xml:space="preserve">
<path fill="#939598" d="M73.111,31.568c-0.729,0-1.387,0.24-1.981,0.723c-0.595,0.49-0.98,1.125-1.164,1.911
	c-0.09,0.367-0.135,0.666-0.135,0.904v2.215c0,0.969,0.291,1.787,0.888,2.453c0.592,0.66,1.364,0.994,2.312,0.994
	c1.11,0,1.983-0.426,2.603-1.285c0.62-0.857,0.928-1.988,0.928-3.398c0-1.291-0.288-2.362-0.873-3.198
	C75.046,32.013,74.189,31.568,73.111,31.568z M127.034,31.384c-1.183,0-2.087,0.525-2.704,1.582
	c-0.535,0.869-0.797,1.932-0.797,3.188c0,1.225,0.262,2.268,0.797,3.141c0.633,1.055,1.527,1.58,2.683,1.58
	c1.124,0,2.013-0.533,2.647-1.613c0.552-0.883,0.826-1.941,0.826-3.158s-0.264-2.268-0.79-3.137
	C129.067,31.91,128.186,31.384,127.034,31.384z M87.73,31.568c-0.732,0-1.387,0.24-1.982,0.723c-0.593,0.49-0.982,1.125-1.166,1.911
	c-0.091,0.367-0.134,0.666-0.134,0.904v2.215c0,0.969,0.292,1.787,0.888,2.453c0.592,0.66,1.364,0.994,2.309,0.994
	c1.119,0,1.984-0.426,2.605-1.285c0.622-0.857,0.934-1.988,0.934-3.398c0-1.291-0.294-2.362-0.876-3.198
	C89.664,32.013,88.806,31.568,87.73,31.568z M57.184,26.808h-0.052c-0.186,0.785-0.474,1.941-0.879,3.477l-1.533,4.819h4.953
	l-1.554-4.819C57.951,29.791,57.638,28.63,57.184,26.808z M149.454,31.24c-0.965,0-1.749,0.412-2.354,1.209
	c-0.492,0.637-0.787,1.404-0.876,2.295h6.158c0.016-0.874-0.172-1.627-0.572-2.27C151.297,31.656,150.511,31.24,149.454,31.24z
	 M70.221,18.111c0.041-0.127,0.041-0.254,0.041-0.381v-0.941c-1.224-0.014-2.391,0.238-2.391,1.279c0,0.676,0.436,0.986,0.984,0.986
	C69.559,19.055,70.051,18.604,70.221,18.111z M54.09,13.806c-0.184-0.577-0.338-1.224-0.479-1.772h-0.029
	c-0.14,0.549-0.295,1.209-0.45,1.772l-0.73,2.336h2.434L54.09,13.806z M162.404,0H6.724C3.017,0,0,3.016,0,6.725v41.863
	c0,3.703,3.017,6.715,6.724,6.715h155.681c3.708,0,6.725-3.012,6.725-6.715V6.725C169.129,3.016,166.112,0,162.404,0z
	 M152.184,13.131c2.223,0,2.955,1.828,2.955,3.334c0,0.324-0.028,0.578-0.057,0.732h-4.587c0.042,1.237,0.999,1.771,2.11,1.771
	c0.802,0,1.365-0.125,1.899-0.309l0.253,1.182c-0.591,0.253-1.406,0.436-2.392,0.436c-2.223,0-3.531-1.363-3.531-3.46
	C148.835,14.917,149.988,13.131,152.184,13.131z M124.723,13.285l0.084,1.027h0.043c0.309-0.535,1.055-1.182,2.194-1.182
	c1.196,0,2.435,0.773,2.435,2.939v4.066h-1.73v-3.869c0-0.984-0.366-1.73-1.309-1.73c-0.689,0-1.168,0.492-1.352,1.014
	c-0.057,0.141-0.084,0.352-0.084,0.549v4.037h-1.73v-4.811c0-0.789-0.028-1.449-0.057-2.041H124.723z M106.55,13.131
	c2.223,0,2.955,1.828,2.955,3.334c0,0.324-0.028,0.578-0.057,0.732h-4.587c0.042,1.237,0.999,1.771,2.11,1.771
	c0.802,0,1.364-0.125,1.899-0.309l0.253,1.182c-0.591,0.253-1.406,0.436-2.392,0.436c-2.223,0-3.531-1.363-3.531-3.46
	C103.201,14.917,104.354,13.131,106.55,13.131z M99.457,10.148h1.729v9.988h-1.729V10.148z M85.732,14.354
	c-0.676,0-1.379,0.213-1.843,0.508l-0.338-1.126c0.506-0.31,1.393-0.604,2.476-0.604c2.195,0,2.829,1.393,2.829,2.897v2.463
	c0,0.619,0.027,1.224,0.111,1.646h-1.562l-0.126-0.759h-0.042c-0.408,0.534-1.126,0.915-2.026,0.915c-1.38,0-2.153-1-2.153-2.041
	c0-1.717,1.533-2.604,4.066-2.589v-0.112C87.125,15.101,86.941,14.354,85.732,14.354z M75.5,10.429c0.591,0,0.957,0.409,0.971,0.942
	c0,0.507-0.38,0.93-0.985,0.93c-0.577,0-0.956-0.423-0.956-0.93C74.529,10.838,74.923,10.429,75.5,10.429z M76.357,13.285v6.852
	h-1.729v-6.852H76.357z M52.556,10.654h2.209l3.081,9.482h-1.871l-0.857-2.688h-2.998l-0.816,2.688h-1.787L52.556,10.654z
	 M61.92,42.793l-1.723-5.414h-5.996l-1.645,5.414h-3.062l5.935-18.448h3.672l5.97,18.448H61.92z M62.592,20.137h-1.703l-2.547-6.852
	h1.872l1.11,3.476c0.197,0.604,0.338,1.153,0.465,1.717h0.043c0.126-0.563,0.281-1.099,0.464-1.717l1.098-3.476h1.815L62.592,20.137
	z M66.154,18.252c0-1.717,1.533-2.604,4.066-2.589v-0.112c0-0.45-0.184-1.197-1.394-1.197c-0.676,0-1.378,0.213-1.843,0.508
	l-0.338-1.126c0.506-0.31,1.393-0.604,2.477-0.604c2.194,0,2.828,1.393,2.828,2.897v2.463c0,0.619,0.027,1.224,0.112,1.646h-1.562
	l-0.126-0.759h-0.042c-0.408,0.534-1.126,0.915-2.026,0.915C66.928,20.293,66.154,19.293,66.154,18.252z M77.729,41.348
	c-1.099,1.162-2.469,1.746-4.1,1.746c-1.766,0-3.029-0.627-3.798-1.891v6.986h-2.954V33.861c0-1.422-0.038-2.877-0.113-4.371h2.601
	l0.163,2.107h0.052c0.99-1.582,2.484-2.375,4.494-2.375c1.569,0,2.875,0.615,3.931,1.859c1.046,1.238,1.572,2.875,1.572,4.899
	C79.576,38.25,78.962,40.031,77.729,41.348z M80.805,20.137h-1.729v-9.988h1.729V20.137z M92.344,41.348
	c-1.102,1.162-2.466,1.746-4.101,1.746c-1.761,0-3.026-0.627-3.795-1.891v6.986h-2.957V33.861c0-1.422-0.038-2.877-0.109-4.371
	h2.594l0.171,2.107h0.051c0.992-1.582,2.483-2.375,4.49-2.375c1.57,0,2.88,0.615,3.929,1.859c1.052,1.238,1.575,2.875,1.575,4.899
	C94.191,38.25,93.577,40.031,92.344,41.348z M94.374,20.293c-0.887,0-1.675-0.338-2.167-1.183h-0.028l-0.084,1.026h-1.478
	c0.028-0.464,0.057-1.223,0.057-1.928v-8.061h1.729v4.079h0.028c0.422-0.661,1.168-1.097,2.195-1.097
	c1.675,0,2.87,1.393,2.856,3.475C97.483,19.068,95.922,20.293,94.374,20.293z M109.254,41.451c-1.208,1.078-2.881,1.613-5.027,1.613
	c-1.989,0-3.58-0.385-4.781-1.148l0.687-2.463c1.295,0.764,2.717,1.15,4.265,1.15c1.118,0,1.982-0.254,2.604-0.752
	c0.617-0.5,0.928-1.17,0.928-2.02c0-0.738-0.256-1.369-0.764-1.883c-0.516-0.51-1.357-0.98-2.545-1.422
	c-3.227-1.202-4.843-2.963-4.843-5.28c0-1.516,0.563-2.76,1.706-3.727c1.141-0.965,2.65-1.449,4.532-1.449
	c1.678,0,3.074,0.295,4.189,0.875l-0.746,2.408c-1.04-0.562-2.222-0.85-3.54-0.85c-1.042,0-1.859,0.266-2.447,0.764
	c-0.491,0.463-0.738,1.02-0.738,1.676c0,0.725,0.283,1.328,0.848,1.811c0.494,0.436,1.389,0.908,2.68,1.418
	c1.593,0.633,2.757,1.387,3.508,2.247c0.746,0.857,1.122,1.924,1.122,3.199C110.89,39.189,110.341,40.471,109.254,41.451z
	 M119.675,31.705h-3.263v6.467c0,1.641,0.579,2.455,1.729,2.455c0.529,0,0.963-0.039,1.312-0.129l0.084,2.238
	c-0.585,0.219-1.35,0.33-2.299,0.33c-1.162,0-2.081-0.352-2.735-1.068c-0.663-0.707-0.99-1.904-0.99-3.584v-6.709h-1.941V29.49
	h1.941v-2.436l2.898-0.875v3.311h3.263V31.705z M118.008,20.293c-1.928,0-3.434-1.324-3.434-3.532c0-2.251,1.478-3.63,3.546-3.63
	c2.04,0,3.405,1.436,3.405,3.518C121.525,19.167,119.752,20.293,118.008,20.293z M131.803,41.074
	c-1.227,1.346-2.851,2.02-4.871,2.02c-1.956,0-3.517-0.646-4.674-1.941c-1.157-1.293-1.734-2.934-1.734-4.9
	c0-2.061,0.596-3.75,1.791-5.063c1.197-1.318,2.803-1.967,4.828-1.967c1.96,0,3.527,0.641,4.714,1.943
	c1.128,1.252,1.694,2.881,1.694,4.868C133.551,38.084,132.971,39.756,131.803,41.074z M134.857,13.285h0.971v-1.281l1.703-0.479
	v1.76h1.646v1.294h-1.646v3.025c0,0.845,0.225,1.267,0.886,1.267c0.31,0,0.479-0.015,0.676-0.07l0.028,1.309
	c-0.254,0.098-0.718,0.184-1.252,0.184c-0.647,0-1.169-0.212-1.492-0.563c-0.38-0.394-0.549-1.027-0.549-1.928v-3.223h-0.971V13.285
	z M142.445,32.089c-0.291-0.053-0.604-0.076-0.931-0.076c-1.04,0-1.841,0.393-2.408,1.176c-0.494,0.695-0.739,1.559-0.739,2.625
	v6.979h-2.956v-9.12c0-1.523-0.026-2.92-0.079-4.184h2.572l0.11,2.547h0.081c0.309-0.873,0.799-1.578,1.478-2.104
	c0.657-0.48,1.372-0.711,2.138-0.711c0.271,0,0.52,0.016,0.734,0.051V32.089z M142.894,16.028v4.108h-1.729v-9.988h1.729v4.065
	h0.028c0.211-0.323,0.507-0.591,0.858-0.773c0.352-0.198,0.76-0.31,1.196-0.31c1.168,0,2.393,0.773,2.393,2.969v4.037h-1.731v-3.854
	c0-0.985-0.366-1.745-1.322-1.745c-0.676,0-1.154,0.451-1.351,0.971C142.908,15.663,142.894,15.846,142.894,16.028z M155.095,36.859
	h-8.87c0.035,1.312,0.464,2.312,1.288,3.004c0.746,0.623,1.712,0.934,2.899,0.934c1.316,0,2.509-0.209,3.586-0.635l0.466,2.055
	c-1.255,0.553-2.745,0.82-4.465,0.82c-2.058,0-3.678-0.604-4.854-1.816c-1.176-1.213-1.77-2.842-1.77-4.885
	c0-2.01,0.551-3.676,1.643-5.014c1.155-1.422,2.706-2.133,4.655-2.133c1.922,0,3.37,0.711,4.353,2.133
	c0.782,1.135,1.177,2.531,1.177,4.194C155.202,36.041,155.164,36.488,155.095,36.859z M93.994,14.48
	c-0.703,0-1.351,0.508-1.533,1.267c-0.029,0.127-0.058,0.281-0.058,0.45v1.111c0,0.141,0.015,0.282,0.043,0.409
	c0.183,0.702,0.788,1.21,1.533,1.21c1.084,0,1.745-0.859,1.745-2.251C95.725,15.467,95.147,14.48,93.994,14.48z M106.451,14.312
	c-1.069,0-1.52,0.971-1.59,1.674h3.011C107.886,15.354,107.604,14.312,106.451,14.312z M118.078,14.383
	c-1.225,0-1.717,1.195-1.717,2.335c0,1.323,0.661,2.322,1.703,2.322c0.984,0,1.674-0.957,1.674-2.35
	C119.738,15.621,119.26,14.383,118.078,14.383z M84.775,18.068c0,0.676,0.437,0.986,0.984,0.986c0.704,0,1.196-0.451,1.365-0.943
	c0.042-0.127,0.042-0.254,0.042-0.381v-0.941C85.943,16.775,84.775,17.027,84.775,18.068z M152.085,14.312
	c-1.069,0-1.52,0.971-1.59,1.674h3.011C153.521,15.354,153.238,14.312,152.085,14.312z M26.521,15.265
	c2.09-2.754,4.996-2.767,4.996-2.767s0.432,2.589-1.645,5.083c-2.217,2.665-4.736,2.229-4.736,2.229S24.663,17.715,26.521,15.265z
	 M25.401,21.624c1.075,0,3.071-1.478,5.669-1.478c4.47,0,6.229,3.181,6.229,3.181s-3.44,1.76-3.44,6.027
	c0,4.813,4.284,6.471,4.284,6.471s-2.994,8.434-7.041,8.434c-1.857,0-3.303-1.252-5.261-1.252c-1.995,0-3.976,1.297-5.266,1.297
	c-3.695,0-8.364-7.998-8.364-14.426c0-6.326,3.953-9.643,7.659-9.643C22.278,20.235,24.149,21.624,25.401,21.624z"/>
</svg>
